<?xml version="1.0" encoding="iso-8859-1"?>
<!-- Generator: Adobe Illustrator 16.0.0, SVG Export Plug-In . SVG Version: 6.00 Build 0)  -->
<!DOCTYPE svg PUBLIC "-//W3C//DTD SVG 1.1//EN" "http://www.w3.org/Graphics/SVG/1.1/DTD/svg11.dtd">
<svg version="1.1" id="Layer_1" xmlns="http://www.w3.org/2000/svg" xmlns:xlink="http://www.w3.org/1999/xlink" x="0px" y="0px"
	 width="200px" height="200px" viewBox="0 0 200 200" style="enable-background:new 0 0 200 200;" xml:space="preserve">
<g>
	<g>
		<g>
			<g>
				<path style="fill:#2F2E2D;" d="M67.279,141.707c3.329,0,5.631-0.564,6.904-1.688c1.272-1.129,1.913-3.357,1.913-6.687v-11.315
					c-1.081,1.961-2.624,3.453-4.63,4.481c-2.009,1.028-4.677,1.545-8.006,1.545c-2.941,0-5.342-0.315-7.2-0.957
					c-1.863-0.636-3.307-1.636-4.335-3.013c-1.028-1.368-1.738-3.204-2.128-5.51c-0.392-2.296-0.588-5.112-0.588-8.446V61.048
					c0-3.429,0.196-6.294,0.588-8.599c0.39-2.296,1.124-4.132,2.203-5.51c1.079-1.368,2.547-2.349,4.407-2.937
					c1.86-0.588,4.261-0.88,7.2-0.88c3.527,0,6.339,0.564,8.449,1.688c2.104,1.129,3.843,2.965,5.215,5.51v-6.466h13.958v89.478
					c0,7.15-1.545,12.436-4.63,15.869c-3.084,3.425-8.351,5.142-15.792,5.142H51.558v-12.636H67.279z M76.536,61.192
					c-1.275-3.032-3.477-4.553-6.612-4.553c-2.546,0-4.211,0.493-4.996,1.468c-0.784,0.98-1.176,2.941-1.176,5.878v43.339
					c0,2.941,0.392,4.902,1.176,5.878c0.785,0.98,2.449,1.468,4.996,1.468c3.135,0,5.337-1.516,6.612-4.553V61.192z"/>
			</g>
			<g>
				<path style="fill:#6CAC44;" d="M131.632,78.309V63.913c0-2.057-0.074-3.721-0.22-4.998c-0.148-1.272-0.469-2.224-0.957-2.865
					c-0.492-0.636-1.224-1.076-2.204-1.32c-0.98-0.244-2.253-0.368-3.819-0.368c-1.667,0-2.963,0.124-3.894,0.368
					c-0.933,0.244-1.643,0.684-2.13,1.32c-0.493,0.641-0.809,1.593-0.957,2.865c-0.144,1.277-0.22,2.941-0.22,4.998v11.459
					c0,1.468,0.098,2.692,0.297,3.673c0.193,0.98,0.609,1.86,1.248,2.645c0.636,0.784,1.563,1.568,2.79,2.348
					c1.223,0.784,2.915,1.717,5.067,2.793c5.094,2.645,9.111,4.897,12.05,6.758c2.939,1.861,5.142,3.745,6.612,5.658
					c1.469,1.909,2.398,4.064,2.791,6.46c0.39,2.405,0.586,5.51,0.586,9.331V133.7c0,5.386-0.315,9.695-0.952,12.928
					c-0.641,3.233-1.836,5.706-3.602,7.418c-1.762,1.717-4.237,2.841-7.418,3.382c-3.185,0.535-7.274,0.808-12.27,0.808
					c-4.701,0-8.573-0.272-11.605-0.808c-3.037-0.541-5.438-1.665-7.2-3.382c-1.763-1.712-2.989-4.185-3.673-7.418
					c-0.687-3.232-1.031-7.542-1.031-12.928v-23.066h16.458V133.7c0,2.057,0.071,3.697,0.22,4.922s0.464,2.181,0.956,2.865
					c0.488,0.684,1.196,1.152,2.129,1.396c0.93,0.243,2.181,0.363,3.747,0.363c3.135,0,5.117-0.584,5.952-1.76
					c0.83-1.177,1.248-3.77,1.248-7.787v-17.485c0-1.961-0.074-3.572-0.22-4.85c-0.148-1.271-0.541-2.396-1.177-3.376
					c-0.639-0.98-1.593-1.885-2.864-2.722c-1.275-0.827-2.989-1.837-5.142-3.007c-5.094-2.645-9.087-4.897-11.977-6.763
					c-2.889-1.856-5.069-3.745-6.537-5.653c-1.469-1.913-2.401-4.018-2.793-6.318s-0.586-5.118-0.586-8.451V63.913
					c0-5.385,0.318-9.699,0.955-12.933c0.636-3.233,1.836-5.729,3.601-7.489c1.763-1.765,4.209-2.917,7.347-3.453
					c3.133-0.541,7.198-0.809,12.193-0.809c4.897,0,8.889,0.268,11.974,0.809c3.085,0.536,5.485,1.688,7.2,3.453
					c1.712,1.76,2.887,4.256,3.527,7.489c0.636,3.233,0.954,7.547,0.954,12.933v14.396H131.632z"/>
			</g>
		</g>
	</g>
	<g>
		<path style="fill:#2F2E2D;" d="M130.303,23.71c1.671,3.477,3.054,6.315,4.282,8.661c1.088,0.122,2.124,0.263,3.088,0.431
			c4.617,0.801,8.391,2.676,11.203,5.569c0.791,0.815,1.485,1.739,2.128,2.719c8.504-1.71,11.718-3.714,13.026-12.863
			c-6.572-5.601-14.057-10.354-22.386-14.288c-11.34-5.356-23.129-8.667-36.009-8.824C105.636,5.115,122.028,6.49,130.303,23.71z"/>
		<path style="fill:#2F2E2D;" d="M42.553,51.217c0.594-3.501,1.826-6.463,3.66-8.807c2.02-2.561,4.698-4.376,7.978-5.412
			c2.599-0.823,5.679-1.222,9.415-1.222c2.576,0,4.892,0.242,6.984,0.732H93.61c-17.795-6.703-43.268-15.003-62.155-1.641
			c0,0,11.409-11.832,32.207-8.702c20.796,3.132,23.928,4.029,38.24,9.84c0.136,0.055,0.276,0.105,0.413,0.16
			c2.432-1.652,5.33-2.795,8.688-3.37c3.559-0.614,7.953-0.914,13.43-0.914c2.492,0,4.737,0.072,6.804,0.204
			c-4.049-9.764-12.698-24.466-25.6-26.972c-8.793-0.11-17.378,0.292-25.885,2.088C57.732,11.858,40.07,24.14,25.995,40.971
			c-6.43,7.688-11.324,15.747-14.785,24.104c-3.979,10.5-6.164,21.881-6.164,33.771c0,2.803,0.129,5.57,0.367,8.312
			c0.906-3.028,3.538-7.625,10.84-12.783c5.371-3.797,14.495-8.167,25.608-12.337V61.048C41.861,57.172,42.087,53.956,42.553,51.217
			z"/>
		<path style="fill:#2F2E2D;" d="M44.212,134.36h10.7c-0.358-0.101-0.707-0.21-1.048-0.33c-3.265-1.114-5.905-2.989-7.827-5.562
			c-1.723-2.291-2.899-5.218-3.485-8.681c-0.464-2.717-0.691-5.883-0.691-9.671V86.509C14.792,97.162,6.586,107.41,5.902,111.591
			c0.258,1.927,0.568,3.835,0.939,5.725c0.1,0.507,0.203,1.009,0.311,1.521c0.059,0.272,0.119,0.55,0.181,0.827
			c0.12,0.536,0.248,1.081,0.377,1.617c4.646,19.26,15.142,36.233,29.5,48.945c3.407-2.133,7.497-4.074,13.493-8.537h-6.49V134.36z"
			/>
		<path style="fill:#2F2E2D;" d="M155.433,63.913v0.586c13.731,0.877,36.19,4.096,38.415,15.728
			c-3.47-17.507-11.732-33.29-23.366-45.923c-1.023-1.069-2.078-2.109-3.156-3.125c-1.019,2.814-4.149,12.657-14.212,13.771
			c-0.053,0.005-0.098,0.012-0.15,0.017c0.562,1.428,1.047,2.932,1.375,4.587C155.074,53.298,155.433,57.992,155.433,63.913z"/>
		<path style="fill:#2F2E2D;" d="M131.196,166.601c0.189-0.411,0.354-0.822,0.538-1.238c-2.209,0.147-4.629,0.22-7.303,0.22
			c-5.165,0-9.379-0.302-12.885-0.918c-4.51-0.804-8.224-2.606-11.046-5.357c-2.515-2.438-4.281-5.738-5.342-9.732
			c-0.872,1.674-1.892,3.2-3.095,4.539c-4.533,5.031-11.683,7.575-21.258,7.575H56.893c-4.306,3.21-7.98,5.749-10.45,7.375
			c-2.484,1.631-4.866,2.688-6.792,3.262c16.486,13.636,37.637,21.833,60.708,21.833c2.081,0,4.146-0.071,6.194-0.205
			C112.197,191.557,122.781,184.837,131.196,166.601z"/>
		<polygon style="fill:#2F2E2D;" points="181.068,147.489 181.068,147.489 181.068,147.489 		"/>
		<path style="fill:#2F2E2D;" d="M181.068,147.484c0.045-0.287,7.26-47.084-27.749-54.144c-0.546-0.11-1.679-0.007-2.669,0.885
			c0.15,0.182,0.327,0.359,0.469,0.545c2.209,2.87,3.628,6.15,4.218,9.75c0.46,2.836,0.682,6.275,0.682,10.518V133.7
			c0,5.926-0.356,10.618-1.09,14.349c-0.936,4.726-2.854,8.513-5.694,11.272c-2.826,2.75-6.634,4.558-11.301,5.352
			c-0.348,0.058-0.734,0.101-1.096,0.153c-6.084,13.225-15.232,24.497-29.05,29.041c3.749-0.287,7.437-0.794,11.053-1.507
			c1.827-0.589,2.937-0.99,4.067-1.301c25.202-6.931,44.582-21.862,58.16-43.57l0,0V147.484z"/>
		<path style="fill:#2F2E2D;" d="M193.861,80.289c0,0,0-0.002,0-0.005c-0.179-0.65-3.661-11.39-38.429-11.921v17.292h-7.068
			c0.031,0.715,0.053,1.399,0.053,2.006c0,0,12.745,0.227,20.125,6.935s20.798,25.063,12.526,52.888v0.005
			c0.401-0.641,0.799-1.287,1.19-1.938c7.188-12.014,11.498-24.487,12.947-37.271c0.306-3.104,0.464-6.252,0.464-9.435
			C195.67,92.497,195.046,86.293,193.861,80.289z"/>
		<polygon style="fill:#2F2E2D;" points="181.068,147.489 181.068,147.489 181.068,147.484 		"/>
		<polygon style="fill:#2F2E2D;" points="181.068,147.494 181.068,147.489 181.068,147.489 		"/>
		<polygon style="fill:#2F2E2D;" points="181.068,147.489 181.068,147.489 181.068,147.489 		"/>
		<path style="fill:#2F2E2D;" d="M193.861,80.287c-0.004-0.019-0.009-0.041-0.014-0.06c0.005,0.02,0.01,0.039,0.014,0.058V80.287z"
			/>
		<path style="fill:#2F2E2D;" d="M193.866,80.32c0,0,0-0.012-0.005-0.033v0.002C193.861,80.298,193.866,80.308,193.866,80.32z"/>
		<polygon style="fill:#2F2E2D;" points="193.861,80.289 193.861,80.287 193.861,80.284 		"/>
	</g>
</g>
</svg>
