<?xml version="1.0" encoding="iso-8859-1"?>
<!-- Generator: Adobe Illustrator 16.0.0, SVG Export Plug-In . SVG Version: 6.00 Build 0)  -->
<!DOCTYPE svg PUBLIC "-//W3C//DTD SVG 1.1//EN" "http://www.w3.org/Graphics/SVG/1.1/DTD/svg11.dtd">
<svg version="1.1" id="Layer_1" xmlns="http://www.w3.org/2000/svg" xmlns:xlink="http://www.w3.org/1999/xlink" x="0px" y="0px"
	 width="444.853px" height="194.853px" viewBox="0 0 444.853 194.853" style="enable-background:new 0 0 444.853 194.853;"
	 xml:space="preserve">
<g>
	<g>
		<g>
			<path style="fill:#2F2E2D;" d="M25.694,172.846c2.879,0,4.871-0.488,5.971-1.461c1.101-0.976,1.655-2.903,1.655-5.782v-9.788
				c-0.935,1.696-2.269,2.987-4.004,3.876c-1.737,0.89-4.045,1.337-6.925,1.337c-2.544,0-4.621-0.273-6.228-0.828
				c-1.611-0.55-2.86-1.414-3.75-2.605c-0.889-1.184-1.503-2.771-1.841-4.766c-0.339-1.985-0.509-4.422-0.509-7.306v-42.442
				c0-2.966,0.169-5.443,0.509-7.437c0.337-1.987,0.972-3.576,1.905-4.765c0.933-1.183,2.203-2.031,3.812-2.54
				c1.609-0.509,3.686-0.763,6.228-0.763c3.051,0,5.483,0.49,7.307,1.462c1.82,0.974,3.324,2.562,4.511,4.765V88.21h12.073v77.393
				c0,6.184-1.336,10.755-4.004,13.726c-2.668,2.961-7.222,4.446-13.659,4.446H12.097v-10.929H25.694z M33.701,103.206
				c-1.103-2.623-3.007-3.938-5.719-3.938c-2.203,0-3.642,0.426-4.321,1.27c-0.678,0.849-1.018,2.544-1.018,5.084v37.487
				c0,2.544,0.339,4.239,1.018,5.084c0.679,0.848,2.118,1.27,4.321,1.27c2.712,0,4.617-1.312,5.719-3.938V103.206z"/>
			<path style="fill:#2F2E2D;" d="M72.713,165.603c-3.223,0-5.87-0.17-7.942-0.509c-2.079-0.34-3.708-1.018-4.894-2.035
				c-1.188-1.014-2.015-2.495-2.478-4.447c-0.467-1.948-0.699-4.529-0.699-7.752v-18.425c0-4.575,0.869-7.922,2.606-10.04
				c1.733-2.118,4.72-3.177,8.958-3.177h2.414c2.879,0,4.915,0.107,6.102,0.318c1.183,0.211,2.072,0.488,2.668,0.827v-15.761
				c0-2.796-0.362-4.592-1.08-5.398c-0.722-0.807-2.269-1.208-4.639-1.208c-2.288,0-3.729,0.468-4.321,1.398
				c-0.594,0.931-0.889,2.668-0.889,5.208v7.5H56.7v-9.022c0-3.562,0.232-6.396,0.699-8.516c0.463-2.116,1.334-3.748,2.606-4.892
				c1.27-1.144,3.003-1.884,5.208-2.223c2.203-0.339,5.04-0.509,8.515-0.509c3.812,0,6.902,0.169,9.276,0.509
				c2.371,0.339,4.213,1.08,5.527,2.223c1.313,1.144,2.226,2.776,2.734,4.892c0.509,2.121,0.761,4.955,0.761,8.516v61.252
				c-1.524,0.422-3.855,0.74-6.989,0.951C81.903,165.495,77.795,165.603,72.713,165.603z M73.729,154.926
				c1.864,0,3.218-0.017,4.066-0.062c0.846-0.041,1.396-0.104,1.652-0.19v-24.906c-0.596-0.34-1.315-0.551-2.161-0.638
				c-0.848-0.082-1.992-0.128-3.432-0.128c-2.457,0-3.961,0.468-4.511,1.398c-0.552,0.935-0.825,2.713-0.825,5.34v11.942
				c0,1.444,0.041,2.627,0.126,3.558c0.085,0.936,0.296,1.676,0.635,2.226c0.339,0.555,0.869,0.936,1.589,1.146
				C71.588,154.823,72.54,154.926,73.729,154.926z"/>
			<path style="fill:#2F2E2D;" d="M115.791,164.333h-12.962V88.21h12.073v5.084c0.933-1.861,2.352-3.282,4.259-4.256
				c1.905-0.972,4.467-1.462,7.686-1.462c3.388,0,6.038,0.467,7.942,1.398c1.907,0.933,3.326,2.542,4.259,4.829
				c1.099-2.033,2.604-3.578,4.511-4.639c1.907-1.057,4.467-1.588,7.688-1.588c2.542,0,4.681,0.254,6.418,0.763
				c1.735,0.509,3.131,1.357,4.192,2.54c1.059,1.189,1.8,2.778,2.224,4.765c0.424,1.993,0.637,4.471,0.637,7.437v61.252h-12.962
				v-59.854c0-1.948-0.383-3.305-1.144-4.07c-0.763-0.761-2.246-1.142-4.447-1.142c-1.611,0-2.86,0.339-3.75,1.018
				c-0.889,0.679-1.588,1.609-2.097,2.796v61.252h-12.962v-59.854c0-1.948-0.38-3.305-1.142-4.07
				c-0.765-0.761-2.246-1.142-4.449-1.142c-1.696,0-2.987,0.359-3.876,1.079c-0.889,0.721-1.588,1.676-2.097,2.859V164.333z"/>
			<path style="fill:#2F2E2D;" d="M186.704,130.785V148.7c0,2.458,0.316,4.046,0.951,4.766c0.637,0.72,2.139,1.08,4.513,1.08
				c2.286,0,3.769-0.36,4.447-1.08c0.676-0.72,1.015-2.308,1.015-4.766v-10.292h11.692v11.054c0,3.562-0.236,6.399-0.699,8.518
				c-0.467,2.118-1.336,3.748-2.606,4.89c-1.27,1.146-3.007,1.886-5.21,2.226c-2.203,0.339-5.082,0.509-8.64,0.509
				c-3.731,0-6.78-0.17-9.15-0.509c-2.374-0.34-4.238-1.08-5.593-2.226c-1.356-1.142-2.267-2.771-2.73-4.89
				c-0.467-2.118-0.699-4.956-0.699-8.518v-46.381c0-3.562,0.232-6.396,0.699-8.516c0.463-2.116,1.374-3.748,2.73-4.892
				c1.355-1.144,3.219-1.884,5.593-2.223c2.371-0.339,5.419-0.509,9.15-0.509c3.558,0,6.437,0.169,8.64,0.509
				c2.203,0.339,3.94,1.08,5.21,2.223c1.27,1.144,2.139,2.776,2.606,4.892c0.463,2.121,0.699,4.955,0.699,8.516v27.704H186.704z
				 M186.704,120.364h10.927v-16.27c0-2.453-0.339-4.021-1.015-4.699c-0.679-0.678-2.162-1.018-4.447-1.018
				c-2.375,0-3.876,0.34-4.513,1.018c-0.635,0.679-0.951,2.246-0.951,4.699V120.364z"/>
		</g>
		<g>
			<path style="fill:#6CAC44;" d="M246.557,96.472V84.018c0-1.779-0.063-3.218-0.189-4.321c-0.129-1.1-0.406-1.925-0.828-2.478
				c-0.426-0.55-1.059-0.931-1.906-1.144c-0.849-0.211-1.949-0.316-3.304-0.316c-1.441,0-2.562,0.105-3.367,0.316
				c-0.807,0.213-1.421,0.594-1.843,1.144c-0.426,0.552-0.699,1.377-0.827,2.478c-0.124,1.103-0.19,2.542-0.19,4.321v9.912
				c0,1.272,0.085,2.331,0.257,3.178c0.167,0.848,0.527,1.609,1.079,2.287c0.551,0.679,1.353,1.357,2.414,2.031
				c1.057,0.679,2.521,1.485,4.383,2.416c4.405,2.287,7.88,4.235,10.422,5.845s4.447,3.239,5.719,4.894
				c1.271,1.65,2.075,3.517,2.414,5.589c0.337,2.081,0.507,4.766,0.507,8.071v16.141c0,4.658-0.272,8.385-0.823,11.182
				c-0.555,2.796-1.588,4.935-3.115,6.416c-1.523,1.485-3.665,2.457-6.416,2.925c-2.755,0.463-6.291,0.699-10.612,0.699
				c-4.066,0-7.415-0.236-10.037-0.699c-2.627-0.468-4.704-1.439-6.229-2.925c-1.524-1.481-2.585-3.62-3.177-6.416
				c-0.594-2.797-0.892-6.523-0.892-11.182V124.43h14.234v19.951c0,1.779,0.062,3.198,0.19,4.257s0.401,1.887,0.827,2.478
				c0.422,0.592,1.034,0.997,1.841,1.208c0.805,0.211,1.887,0.314,3.241,0.314c2.712,0,4.427-0.505,5.148-1.522
				c0.718-1.018,1.079-3.26,1.079-6.734v-15.123c0-1.696-0.063-3.091-0.189-4.195c-0.129-1.1-0.468-2.072-1.018-2.92
				c-0.553-0.849-1.378-1.63-2.479-2.354c-1.103-0.715-2.585-1.588-4.447-2.602c-4.405-2.287-7.859-4.236-10.357-5.85
				c-2.499-1.604-4.385-3.238-5.655-4.89c-1.27-1.654-2.076-3.475-2.416-5.464c-0.339-1.99-0.507-4.425-0.507-7.309v-9.657
				c0-4.658,0.275-8.387,0.826-11.184c0.55-2.796,1.588-4.956,3.114-6.48c1.524-1.524,3.641-2.521,6.354-2.987
				c2.709-0.465,6.226-0.699,10.546-0.699c4.236,0,7.688,0.233,10.356,0.699c2.668,0.466,4.744,1.462,6.228,2.987
				c1.481,1.524,2.497,3.684,3.051,6.48c0.55,2.796,0.825,6.526,0.825,11.184v12.454H246.557z"/>
			<path style="fill:#6CAC44;" d="M282.899,130.785V148.7c0,2.458,0.316,4.046,0.954,4.766c0.635,0.72,2.139,1.08,4.511,1.08
				c2.285,0,3.769-0.36,4.447-1.08c0.676-0.72,1.016-2.308,1.016-4.766v-10.292h11.692v11.054c0,3.562-0.234,6.399-0.699,8.518
				c-0.466,2.118-1.334,3.748-2.604,4.89c-1.27,1.146-3.007,1.886-5.212,2.226c-2.203,0.339-5.082,0.509-8.64,0.509
				c-3.729,0-6.778-0.17-9.15-0.509c-2.372-0.34-4.238-1.08-5.591-2.226c-1.356-1.142-2.267-2.771-2.732-4.89
				c-0.467-2.118-0.699-4.956-0.699-8.518v-46.381c0-3.562,0.232-6.396,0.699-8.516c0.466-2.116,1.376-3.748,2.732-4.892
				c1.353-1.144,3.219-1.884,5.591-2.223c2.372-0.339,5.421-0.509,9.15-0.509c3.558,0,6.437,0.169,8.64,0.509
				c2.205,0.339,3.942,1.08,5.212,2.223c1.271,1.144,2.139,2.776,2.604,4.892c0.465,2.121,0.699,4.955,0.699,8.516v27.704H282.899z
				 M282.899,120.364h10.928v-16.27c0-2.453-0.34-4.021-1.016-4.699c-0.679-0.678-2.162-1.018-4.447-1.018
				c-2.372,0-3.876,0.34-4.511,1.018c-0.638,0.679-0.954,2.246-0.954,4.699V120.364z"/>
			<path style="fill:#6CAC44;" d="M328.773,164.333h-12.96V88.21h12.07v5.084c0.933-1.694,2.354-3.069,4.259-4.13
				c1.905-1.057,4.424-1.588,7.56-1.588c4.406,0,7.478,1.103,9.215,3.303c1.735,2.205,2.604,6.27,2.604,12.202v18.934h-11.689
				v-17.411c0-2.031-0.34-3.429-1.018-4.194c-0.679-0.761-2.118-1.142-4.319-1.142c-2.883,0-4.788,1.398-5.721,4.194V164.333z"/>
			<path style="fill:#6CAC44;" d="M363.087,164.333l-9.15-76.122h13.598l5.845,57.821h0.509l6.354-57.821h13.469l-10.292,76.122
				H363.087z"/>
			<path style="fill:#6CAC44;" d="M411.25,130.785V148.7c0,2.458,0.316,4.046,0.952,4.766c0.637,0.72,2.139,1.08,4.513,1.08
				c2.285,0,3.769-0.36,4.447-1.08c0.676-0.72,1.016-2.308,1.016-4.766v-10.292h11.691v11.054c0,3.562-0.235,6.399-0.698,8.518
				c-0.468,2.118-1.337,3.748-2.606,4.89c-1.27,1.146-3.008,1.886-5.21,2.226c-2.203,0.339-5.082,0.509-8.64,0.509
				c-3.731,0-6.78-0.17-9.15-0.509c-2.374-0.34-4.238-1.08-5.593-2.226c-1.356-1.142-2.267-2.771-2.73-4.89
				c-0.467-2.118-0.698-4.956-0.698-8.518v-46.381c0-3.562,0.231-6.396,0.698-8.516c0.464-2.116,1.374-3.748,2.73-4.892
				c1.354-1.144,3.219-1.884,5.593-2.223c2.37-0.339,5.419-0.509,9.15-0.509c3.558,0,6.437,0.169,8.64,0.509
				c2.202,0.339,3.94,1.08,5.21,2.223c1.27,1.144,2.139,2.776,2.606,4.892c0.463,2.121,0.698,4.955,0.698,8.516v27.704H411.25z
				 M411.25,120.364h10.928v-16.27c0-2.453-0.34-4.021-1.016-4.699c-0.679-0.678-2.162-1.018-4.447-1.018
				c-2.374,0-3.876,0.34-4.513,1.018c-0.636,0.679-0.952,2.246-0.952,4.699V120.364z"/>
		</g>
	</g>
	<g>
		<defs>
			<path id="SVGID_1_" d="M440.222,150.053c0.002-0.194,0.002-46.973,0.002-46.973c0-4.037-0.277-7.271-0.848-9.881
				c-0.758-3.432-2.29-6.203-4.557-8.249c-2.205-1.981-5.063-3.253-8.497-3.781c-2.544-0.393-5.686-0.583-9.607-0.583
				c-4.072,0-7.361,0.188-10.05,0.573c-2.172,0.311-4.118,0.887-5.822,1.727l0.141-1.03h-26.438l-0.66,6.017l-0.61-6.017h-26.503
				l0.045,0.37c-2.097-0.668-4.476-1.005-7.115-1.005c-2.155,0-4.159,0.213-5.981,0.635h-24.262v6.968
				c-0.786-1.492-1.785-2.786-2.992-3.874c-2.199-1.979-5.058-3.251-8.495-3.781c-2.544-0.393-5.686-0.583-9.607-0.583
				c-4.072,0-7.361,0.188-10.05,0.573c-3.558,0.509-6.516,1.74-8.791,3.657c-0.905,0.766-1.7,1.634-2.38,2.606v-3.405
				c0-5.113-0.309-9.173-0.945-12.414c-0.795-4.008-2.383-7.264-4.729-9.68c-2.433-2.497-5.692-4.118-9.69-4.817
				c-3.071-0.534-6.817-0.792-11.45-0.792c-4.722,0-8.523,0.258-11.622,0.79c-4.017,0.689-7.305,2.29-9.771,4.757
				c-2.428,2.426-4.062,5.704-4.856,9.744c-0.635,3.225-0.945,7.285-0.945,12.412v4.569c-0.765-1.392-1.723-2.606-2.865-3.636
				c-2.201-1.979-5.059-3.251-8.497-3.781c-2.542-0.393-5.684-0.583-9.605-0.583c-4.075,0-7.361,0.188-10.052,0.573
				c-3.558,0.509-6.516,1.74-8.789,3.657c-1.855,1.564-3.241,3.566-4.135,5.974c-0.67-1.568-1.539-2.954-2.598-4.147
				c-1.868-2.081-4.269-3.56-7.148-4.401c-2.341-0.687-5.024-1.02-8.201-1.02c-4.354,0-7.878,0.782-10.776,2.391
				c-0.383,0.211-0.755,0.438-1.121,0.678c-0.565-0.382-1.156-0.726-1.773-1.026c-2.812-1.375-6.323-2.043-10.73-2.043
				c-2.341,0-4.422,0.209-6.296,0.635H96.475v8.275c-0.894-2.087-2.155-3.845-3.769-5.251c-2.249-1.955-5.208-3.206-8.803-3.721
				c-2.689-0.385-6.019-0.573-10.174-0.573c-3.839,0-6.939,0.19-9.483,0.583c-3.438,0.53-6.296,1.802-8.493,3.781
				c-1.208,1.088-2.209,2.38-2.991,3.868v-6.962H28.565c-1.81-0.426-3.808-0.635-6.048-0.635c-3.225,0-5.889,0.346-8.141,1.059
				c-2.84,0.897-5.161,2.47-6.896,4.672c-1.59,2.027-2.658,4.592-3.173,7.626c-0.403,2.366-0.598,5.147-0.598,8.501v42.442
				c0,1.634,0.05,3.132,0.153,4.53h-24.849V8.679h477.604v141.374H440.222z"/>
		</defs>
		<clipPath id="SVGID_2_">
			<use xlink:href="#SVGID_1_"  style="overflow:visible;"/>
		</clipPath>
		<g style="clip-path:url(#SVGID_2_);">
			<g>
				<path style="fill:#2F2E2D;" d="M219.953,112.377c0,0,0.078,0.043,0.216,0.111c-0.071-0.104-0.144-0.222-0.222-0.334
					c-5.568-7.352-5.569-12.294-5.136-14.468c-0.337,0.146-0.614,0.259-0.814,0.325c0,0-13.169-11.758-14.373-16.565
					c-2.49,0.451-6.048,0.905-9.285,0.592c-0.044,0.942-0.121,2.672-0.144,4.751c4.075,10.591,11.388,19.522,20.685,25.64
					C212.869,112.607,215.777,112.66,219.953,112.377z"/>
				<path style="fill:#2F2E2D;" d="M199.57,81.218c-0.02-0.113-0.041-0.23-0.045-0.332c0,0,2.851-13.669,6.862-18.04
					c0,0,0.136,0.014,0.37,0.02c-3.679-7.893-4.462-15.153-4.28-20.068c-1.052-0.298-5.278-1.289-10.021,0.253
					c-4.072,7.988-6.2,17.105-5.789,26.704c0.118,2.757,0.438,5.453,0.953,8.083c0.766,1.263,1.609,2.428,2.482,3.198
					C192.809,81.256,196.366,81.467,199.57,81.218z"/>
				<path style="fill:#2F2E2D;" d="M240.792,117.829c0,0,0.004,0.021,0.009,0.054c8.651-1.511,14.37-5.34,17.945-9.162
					c-1.32-2.44-3.578-10.558-4.491-13.934c-9.089-0.04-18.34-4.353-22.084-6.318c0.047,0.139,0.088,0.254,0.132,0.362
					c0,0-12.365,6.545-16.974,8.629c0.975,7.53,2.997,12.098,4.618,14.694c0.097,0.116,0.193,0.244,0.294,0.373
					C222.132,113.461,233.4,118.829,240.792,117.829z"/>
				<path style="fill:#2F2E2D;" d="M219.602,26.46c9.256-1.121,15.665,1.672,19.303,4.08l-0.065-0.368
					c5.24-2.958,16.859-4.824,19.274-5.184c-0.228-3.042-0.499-6.044-0.741-8.645c-6.031-1.994-12.512-2.954-19.239-2.666
					c-6.622,0.284-12.909,1.751-18.671,4.195C219.692,20.389,219.895,23.829,219.602,26.46z"/>
				<path style="fill:#2F2E2D;" d="M258.57,24.928c13.186,10.246,14.842,14.903,14.922,16.471c4.44-0.542,9.894,2.708,13.238,5.28
					c-0.447-1.091-0.729-1.739-0.729-1.739s0.008-3.155,0.523-5.312c-6.403-10.582-16.337-18.746-28.097-22.914
					C258.753,20.059,258.701,22.954,258.57,24.928z"/>
				<path style="fill:#2F2E2D;" d="M283.616,84.427c0.128,5.31-3.458,14.08-4.679,16.898c0.56,0.577,1.182,1.217,1.773,1.833
					c8.265-9.324,13.323-21.511,13.546-34.778l-1.958-0.583C291.181,73.413,288.632,80.969,283.616,84.427z"/>
				<path style="fill:#2F2E2D;" d="M278.538,102.242c-8.046,7.068-19.216,7.183-19.216,7.183c-0.134-0.031-0.293-0.223-0.478-0.53
					c-4.489,6.416-12.238,8.636-17.975,9.366c0.104,0.596,0.314,1.733,0.578,3.006c0.435-0.011,0.863-0.025,1.292-0.043
					c15.005-0.643,28.308-7.365,37.633-17.694l-1.551-1.937C278.643,102.005,278.538,102.242,278.538,102.242z"/>
				<path style="fill:#2F2E2D;" d="M273.455,41.918c-0.021,0.085-0.04,0.128-0.04,0.128l-8.95,13.732l-0.498-0.13
					c4.45,9.412,5.779,19.412,6.167,23.911c0.19-0.243,0.294-0.375,0.294-0.375c2.864,0.817,11.746,4.447,13.027,4.967
					c2.392-2.322,7.312-8.306,8.643-19.18l0,0c-0.456-5.222-3.266-12.96-4.906-17.126C281.23,43.016,276.157,42.039,273.455,41.918z
					"/>
				<path style="fill:#2F2E2D;" d="M244.138,50.331c-2.931,2.629-8.758,7.994-18.166,17.198c0.159,0.084,0.315,0.17,0.464,0.255
					c0,0,4.168,16.102,5.669,20.499c7.439,3.252,17.04,5.081,21.982,5.875c-0.144-0.553-0.226-0.87-0.226-0.87
					c5.173,0.159,14.51-11.467,16.272-13.725c-0.852-7.137-4.891-18.282-7.032-24.146L244.138,50.331z"/>
				<path style="fill:#2F2E2D;" d="M242.077,49.778l-2.998-18.154c-8.062-4.122-15.465-4.763-20.22-4.586
					c-2.491,1.57-10.804,7.144-15.191,14.188c-0.789,8.356,2.086,18.046,3.288,21.652c2.34,0.133,11.41,0.847,18.154,4.199
					c5.397-5.626,12.544-12.74,17.645-17.115L242.077,49.778z"/>
			</g>
		</g>
	</g>
</g>
</svg>
