<?xml version="1.0" encoding="iso-8859-1"?>
<!-- Generator: Adobe Illustrator 16.0.0, SVG Export Plug-In . SVG Version: 6.00 Build 0)  -->
<!DOCTYPE svg PUBLIC "-//W3C//DTD SVG 1.1//EN" "http://www.w3.org/Graphics/SVG/1.1/DTD/svg11.dtd">
<svg version="1.1" id="Layer_1" xmlns="http://www.w3.org/2000/svg" xmlns:xlink="http://www.w3.org/1999/xlink" x="0px" y="0px"
	 width="444.853px" height="194.853px" viewBox="0 0 444.853 194.853" style="enable-background:new 0 0 444.853 194.853;"
	 xml:space="preserve">
<g>
	<g>
		<g>
			<path style="fill:#2F2E2D;" d="M25.761,173.05c2.879,0,4.871-0.487,5.971-1.465c1.1-0.972,1.655-2.899,1.655-5.778v-9.786
				c-0.936,1.696-2.269,2.988-4.004,3.876c-1.737,0.891-4.045,1.336-6.924,1.336c-2.543,0-4.62-0.276-6.227-0.826
				c-1.611-0.552-2.86-1.42-3.75-2.607c-0.889-1.183-1.503-2.771-1.84-4.765c-0.339-1.988-0.509-4.426-0.509-7.303v-42.44
				c0-2.962,0.17-5.438,0.509-7.433c0.337-1.989,0.972-3.577,1.904-4.765c0.933-1.183,2.203-2.031,3.812-2.539
				c1.609-0.509,3.685-0.766,6.227-0.766c3.051,0,5.482,0.492,7.306,1.464c1.82,0.971,3.324,2.56,4.51,4.764v-5.592h12.071v77.381
				c0,6.179-1.335,10.755-4.003,13.72c-2.668,2.965-7.222,4.451-13.657,4.451H12.166V173.05H25.761z M33.767,103.419
				c-1.103-2.626-3.008-3.938-5.719-3.938c-2.203,0-3.641,0.422-4.32,1.271c-0.679,0.847-1.017,2.539-1.017,5.082v37.481
				c0,2.544,0.338,4.236,1.017,5.082c0.679,0.848,2.117,1.271,4.32,1.271c2.711,0,4.616-1.311,5.719-3.937V103.419z"/>
			<path style="fill:#2F2E2D;" d="M72.773,165.807c-3.223,0-5.869-0.174-7.941-0.509c-2.078-0.339-3.708-1.017-4.893-2.035
				c-1.188-1.019-2.014-2.498-2.478-4.445c-0.467-1.948-0.699-4.529-0.699-7.752v-18.421c0-4.575,0.869-7.92,2.606-10.04
				c1.732-2.116,4.719-3.176,8.957-3.176h2.412c2.879,0,4.914,0.108,6.101,0.319c1.184,0.212,2.073,0.489,2.668,0.823v-15.753
				c0-2.797-0.363-4.596-1.08-5.403c-0.721-0.803-2.268-1.204-4.638-1.204c-2.287,0-3.729,0.465-4.32,1.394
				c-0.594,0.936-0.89,2.674-0.89,5.214v7.494H56.762v-9.021c0-3.558,0.232-6.394,0.699-8.512c0.464-2.117,1.334-3.747,2.606-4.893
				c1.27-1.142,3.002-1.883,5.208-2.221c2.202-0.339,5.04-0.51,8.514-0.51c3.811,0,6.9,0.17,9.275,0.51
				c2.371,0.338,4.213,1.079,5.526,2.221c1.313,1.146,2.225,2.775,2.734,4.893c0.509,2.119,0.761,4.955,0.761,8.512v61.242
				c-1.524,0.426-3.854,0.741-6.987,0.955C81.962,165.701,77.854,165.807,72.773,165.807z M73.789,155.133
				c1.863,0,3.218-0.022,4.065-0.063c0.846-0.042,1.396-0.106,1.653-0.189v-24.903c-0.596-0.339-1.315-0.552-2.161-0.638
				c-0.848-0.083-1.993-0.127-3.431-0.127c-2.457,0-3.96,0.468-4.511,1.397c-0.552,0.936-0.826,2.714-0.826,5.336v11.944
				c0,1.443,0.042,2.626,0.127,3.558c0.084,0.936,0.296,1.674,0.635,2.225c0.339,0.551,0.869,0.932,1.588,1.142
				C71.648,155.028,72.599,155.133,73.789,155.133z"/>
			<path style="fill:#2F2E2D;" d="M115.844,164.534h-12.96V88.426h12.071v5.084c0.933-1.861,2.352-3.285,4.258-4.256
				c1.904-0.972,4.466-1.464,7.685-1.464c3.388,0,6.036,0.468,7.94,1.398c1.908,0.935,3.326,2.543,4.258,4.83
				c1.099-2.034,2.605-3.577,4.511-4.64c1.906-1.055,4.466-1.588,7.687-1.588c2.542,0,4.68,0.256,6.417,0.766
				c1.736,0.508,3.131,1.356,4.192,2.539c1.059,1.188,1.799,2.776,2.223,4.765c0.425,1.994,0.637,4.471,0.637,7.433v61.242h-12.96
				v-59.846c0-1.947-0.382-3.299-1.143-4.063c-0.764-0.761-2.247-1.143-4.447-1.143c-1.611,0-2.86,0.34-3.749,1.015
				c-0.89,0.681-1.588,1.611-2.097,2.795v61.242h-12.96v-59.846c0-1.947-0.38-3.299-1.141-4.063
				c-0.766-0.761-2.246-1.143-4.449-1.143c-1.695,0-2.985,0.359-3.875,1.079c-0.89,0.72-1.588,1.67-2.097,2.858V164.534z"/>
			<path style="fill:#2F2E2D;" d="M186.746,130.991v17.917c0,2.457,0.315,4.045,0.951,4.765c0.637,0.719,2.137,1.079,4.512,1.079
				c2.285,0,3.768-0.36,4.446-1.079c0.677-0.72,1.016-2.308,1.016-4.765v-10.295h11.691v11.056c0,3.558-0.236,6.399-0.7,8.513
				c-0.467,2.12-1.336,3.751-2.605,4.892c-1.27,1.146-3.007,1.887-5.209,2.226c-2.202,0.335-5.081,0.509-8.638,0.509
				c-3.73,0-6.779-0.174-9.148-0.509c-2.375-0.339-4.237-1.079-5.593-2.226c-1.356-1.141-2.266-2.771-2.729-4.892
				c-0.467-2.113-0.7-4.955-0.7-8.513v-46.377c0-3.558,0.232-6.394,0.7-8.512c0.463-2.117,1.373-3.747,2.729-4.893
				c1.355-1.142,3.218-1.883,5.593-2.221c2.37-0.339,5.418-0.51,9.148-0.51c3.558,0,6.436,0.17,8.638,0.51
				c2.203,0.338,3.94,1.079,5.209,2.221c1.27,1.146,2.139,2.775,2.605,4.893c0.464,2.119,0.7,4.955,0.7,8.512v27.699H186.746z
				 M186.746,120.572h10.925v-16.263c0-2.456-0.339-4.021-1.016-4.704c-0.678-0.673-2.161-1.011-4.446-1.011
				c-2.375,0-3.875,0.338-4.512,1.011c-0.636,0.683-0.951,2.248-0.951,4.704V120.572z"/>
		</g>
		<g>
			<path style="fill:#6CAC44;" d="M246.589,96.686V84.233c0-1.779-0.063-3.218-0.188-4.318c-0.13-1.101-0.407-1.928-0.828-2.478
				c-0.426-0.55-1.06-0.931-1.906-1.146c-0.85-0.211-1.948-0.314-3.304-0.314c-1.441,0-2.561,0.104-3.367,0.314
				c-0.806,0.215-1.419,0.595-1.842,1.146c-0.426,0.55-0.7,1.377-0.827,2.478c-0.124,1.1-0.191,2.54-0.191,4.318v9.91
				c0,1.273,0.085,2.333,0.258,3.175c0.168,0.849,0.526,1.614,1.079,2.287c0.551,0.683,1.353,1.357,2.414,2.035
				c1.057,0.681,2.52,1.486,4.381,2.416c4.406,2.288,7.88,4.234,10.421,5.845c2.542,1.607,4.445,3.239,5.72,4.889
				c1.27,1.654,2.073,3.52,2.412,5.592c0.337,2.077,0.506,4.764,0.506,8.07v16.134c0,4.66-0.272,8.388-0.821,11.185
				c-0.555,2.797-1.59,4.933-3.114,6.415c-1.525,1.483-3.666,2.456-6.415,2.924c-2.755,0.462-6.293,0.698-10.612,0.698
				c-4.065,0-7.414-0.236-10.036-0.698c-2.626-0.468-4.701-1.44-6.226-2.924c-1.524-1.482-2.586-3.618-3.177-6.415
				c-0.594-2.797-0.893-6.524-0.893-11.185v-19.947h14.234v19.947c0,1.778,0.061,3.202,0.188,4.255
				c0.131,1.064,0.402,1.888,0.828,2.479c0.423,0.597,1.033,0.997,1.842,1.207c0.804,0.217,1.885,0.318,3.239,0.318
				c2.713,0,4.426-0.509,5.147-1.525c0.717-1.014,1.079-3.26,1.079-6.733v-15.116c0-1.696-0.063-3.096-0.188-4.194
				c-0.13-1.101-0.468-2.077-1.019-2.925c-0.553-0.843-1.377-1.629-2.478-2.349c-1.102-0.719-2.586-1.588-4.446-2.606
				c-4.405-2.287-7.858-4.234-10.356-5.845c-2.498-1.608-4.385-3.237-5.655-4.893c-1.269-1.651-2.074-3.47-2.415-5.464
				c-0.338-1.989-0.505-4.42-0.505-7.305v-9.656c0-4.657,0.274-8.384,0.825-11.181c0.548-2.796,1.589-4.955,3.113-6.48
				c1.525-1.522,3.641-2.519,6.352-2.986c2.711-0.464,6.226-0.699,10.546-0.699c4.235,0,7.687,0.235,10.355,0.699
				c2.668,0.467,4.743,1.464,6.228,2.986c1.479,1.525,2.495,3.685,3.05,6.48c0.55,2.797,0.824,6.523,0.824,11.181v12.453H246.589z"
				/>
			<path style="fill:#6CAC44;" d="M282.926,130.991v17.917c0,2.457,0.316,4.045,0.954,4.765c0.635,0.719,2.138,1.079,4.511,1.079
				c2.285,0,3.768-0.36,4.445-1.079c0.677-0.72,1.016-2.308,1.016-4.765v-10.295h11.691v11.056c0,3.558-0.234,6.399-0.7,8.513
				c-0.466,2.12-1.334,3.751-2.604,4.892c-1.271,1.146-3.005,1.887-5.211,2.226c-2.203,0.335-5.08,0.509-8.638,0.509
				c-3.729,0-6.777-0.174-9.149-0.509c-2.372-0.339-4.237-1.079-5.59-2.226c-1.356-1.141-2.267-2.771-2.732-4.892
				c-0.468-2.113-0.697-4.955-0.697-8.513v-46.377c0-3.558,0.229-6.394,0.697-8.512c0.466-2.117,1.376-3.747,2.732-4.893
				c1.353-1.142,3.218-1.883,5.59-2.221c2.372-0.339,5.421-0.51,9.149-0.51c3.558,0,6.435,0.17,8.638,0.51
				c2.206,0.338,3.94,1.079,5.211,2.221c1.27,1.146,2.138,2.775,2.604,4.893c0.466,2.119,0.7,4.955,0.7,8.512v27.699H282.926z
				 M282.926,120.572h10.926v-16.263c0-2.456-0.339-4.021-1.016-4.704c-0.678-0.673-2.16-1.011-4.445-1.011
				c-2.373,0-3.876,0.338-4.511,1.011c-0.638,0.683-0.954,2.248-0.954,4.704V120.572z"/>
			<path style="fill:#6CAC44;" d="M328.793,164.534h-12.959V88.426h12.07v5.084c0.932-1.696,2.353-3.069,4.257-4.132
				c1.905-1.055,4.425-1.588,7.56-1.588c4.405,0,7.477,1.104,9.213,3.304c1.734,2.205,2.604,6.272,2.604,12.198v18.935h-11.689
				v-17.407c0-2.036-0.337-3.43-1.016-4.194c-0.681-0.761-2.118-1.143-4.318-1.143c-2.883,0-4.787,1.397-5.721,4.19V164.534z"/>
			<path style="fill:#6CAC44;" d="M363.102,164.534l-9.149-76.107h13.596l5.843,57.814h0.51l6.354-57.814h13.465l-10.289,76.107
				H363.102z"/>
			<path style="fill:#6CAC44;" d="M411.258,130.991v17.917c0,2.457,0.316,4.045,0.952,4.765c0.637,0.719,2.138,1.079,4.513,1.079
				c2.283,0,3.768-0.36,4.445-1.079c0.676-0.72,1.014-2.308,1.014-4.765v-10.295h11.69v11.056c0,3.558-0.235,6.399-0.697,8.513
				c-0.468,2.12-1.337,3.751-2.605,4.892c-1.271,1.146-3.008,1.887-5.212,2.226c-2.2,0.335-5.08,0.509-8.635,0.509
				c-3.732,0-6.782-0.174-9.149-0.509c-2.375-0.339-4.238-1.079-5.592-2.226c-1.358-1.141-2.269-2.771-2.73-4.892
				c-0.468-2.113-0.7-4.955-0.7-8.513v-46.377c0-3.558,0.232-6.394,0.7-8.512c0.462-2.117,1.372-3.747,2.73-4.893
				c1.354-1.142,3.217-1.883,5.592-2.221c2.367-0.339,5.417-0.51,9.149-0.51c3.555,0,6.435,0.17,8.635,0.51
				c2.204,0.338,3.941,1.079,5.212,2.221c1.269,1.146,2.138,2.775,2.605,4.893c0.462,2.119,0.697,4.955,0.697,8.512v27.699H411.258z
				 M411.258,120.572h10.924v-16.263c0-2.456-0.338-4.021-1.014-4.704c-0.678-0.673-2.162-1.011-4.445-1.011
				c-2.375,0-3.876,0.338-4.513,1.011c-0.636,0.683-0.952,2.248-0.952,4.704V120.572z"/>
		</g>
	</g>
	<g>
		<defs>
			<path id="SVGID_1_" d="M440.223,150.26c0.002-0.195,0.002-46.969,0.002-46.969c0-4.038-0.276-7.266-0.847-9.877
				c-0.757-3.433-2.29-6.204-4.556-8.247c-2.204-1.981-5.063-3.255-8.495-3.781c-2.544-0.393-5.687-0.583-9.604-0.583
				c-4.072,0-7.361,0.186-10.05,0.57c-2.172,0.311-4.118,0.89-5.822,1.73l0.142-1.03h-26.434l-0.66,6.014l-0.609-6.014h-26.501
				l0.046,0.368c-2.095-0.665-4.474-1.004-7.113-1.004c-2.154,0-4.159,0.214-5.98,0.637h-24.259v6.965
				c-0.786-1.489-1.784-2.783-2.991-3.871c-2.199-1.981-5.058-3.251-8.495-3.781c-2.542-0.393-5.684-0.583-9.604-0.583
				c-4.072,0-7.361,0.186-10.047,0.57c-3.558,0.509-6.517,1.742-8.791,3.657c-0.905,0.765-1.7,1.633-2.38,2.605v-3.403
				c0-5.112-0.309-9.17-0.945-12.413c-0.793-4.008-2.382-7.263-4.728-9.678c-2.433-2.494-5.691-4.116-9.688-4.814
				c-3.071-0.534-6.816-0.794-11.449-0.794c-4.721,0-8.522,0.26-11.62,0.79c-4.016,0.691-7.304,2.291-9.768,4.756
				c-2.428,2.428-4.063,5.704-4.857,9.745c-0.635,3.221-0.945,7.283-0.945,12.408v4.569c-0.765-1.393-1.723-2.605-2.864-3.635
				c-2.2-1.981-5.058-3.251-8.495-3.781c-2.542-0.393-5.683-0.583-9.604-0.583c-4.074,0-7.359,0.186-10.051,0.57
				c-3.556,0.509-6.514,1.742-8.787,3.657c-1.855,1.563-3.241,3.565-4.134,5.973c-0.67-1.567-1.539-2.954-2.598-4.145
				c-1.867-2.081-4.268-3.562-7.147-4.401c-2.341-0.687-5.023-1.021-8.2-1.021c-4.353,0-7.877,0.781-10.774,2.39
				c-0.382,0.211-0.755,0.438-1.12,0.678c-0.565-0.38-1.157-0.723-1.773-1.024c-2.813-1.374-6.322-2.043-10.729-2.043
				c-2.34,0-4.421,0.21-6.295,0.637H96.531v8.271c-0.894-2.084-2.155-3.842-3.768-5.249c-2.249-1.956-5.208-3.206-8.802-3.723
				c-2.688-0.384-6.018-0.57-10.172-0.57c-3.838,0-6.938,0.189-9.482,0.583c-3.438,0.53-6.295,1.8-8.492,3.781
				c-1.208,1.088-2.208,2.378-2.99,3.868v-6.961H28.631c-1.81-0.426-3.807-0.637-6.047-0.637c-3.224,0-5.887,0.347-8.14,1.058
				c-2.839,0.898-5.159,2.47-6.895,4.674c-1.59,2.026-2.657,4.59-3.172,7.623c-0.403,2.365-0.598,5.144-0.598,8.5v42.44
				c0,1.629,0.049,3.131,0.153,4.528h-24.846V8.907h477.529V150.26H440.223z"/>
		</defs>
		<clipPath id="SVGID_2_">
			<use xlink:href="#SVGID_1_"  style="overflow:visible;"/>
		</clipPath>
		<g style="clip-path:url(#SVGID_2_);">
			<g>
				<path style="fill:#2F2E2D;" d="M256.454,30.15c4.457,9.265,5.177,10.472,10.352,9.509c5.18-0.96,7.063-1.878,7.806-7.082
					c-3.539-3.012-7.562-5.571-12.054-7.689c-6.104-2.886-12.449-4.668-19.385-4.748C243.173,20.141,251.999,20.877,256.454,30.15z"
					/>
				<path style="fill:#2F2E2D;" d="M195.053,68.189c6.983-4.934,25.641-11.676,43.104-14.323
					c17.455-2.651,24.195-2.047,24.195-2.047s-1.081-7.346-2.287-9.633c0,0-7.823,0.124-16.251-2.526
					c-8.431-2.651-27.454-12.785-40.577-3.504c0,0,6.144-6.37,17.34-4.682c11.196,1.684,12.883,2.167,20.592,5.294
					c7.701,3.135,17.335,4.459,17.213,2.407c-0.121-2.047-5.373-17.123-15.208-19.034c-4.732-0.058-9.356,0.154-13.936,1.121
					c-11.852,2.503-21.36,9.116-28.942,18.183c-3.459,4.14-6.094,8.474-7.957,12.974c-2.143,5.654-3.318,11.78-3.318,18.179
					c0,1.513,0.071,3.006,0.197,4.479C189.705,73.442,191.121,70.973,195.053,68.189z"/>
				<path style="fill:#2F2E2D;" d="M255.97,66.505c6.803-1.559,7.921-1.65,8.068-1.604c0-0.542-0.053-6.978-1.322-10.555
					c0,0-18.063-1.324-42.14,5.658c-24.062,6.981-30.64,14.687-31.097,17.458c0.144,1.038,0.309,2.063,0.509,3.081
					c0.054,0.274,0.105,0.547,0.166,0.82c0.035,0.148,0.066,0.298,0.095,0.446c0.067,0.287,0.139,0.581,0.208,0.869
					c2.5,10.369,8.15,19.509,15.876,26.354c2.926-1.835,6.78-3.396,14.244-10.621C236.105,84.204,247.059,68.552,255.97,66.505z"/>
				<path style="fill:#2F2E2D;" d="M268.735,41.583c-5.419,0.607-6.625,0.727-6.625,0.727s2.052,6.018,2.17,9.628
					c0,0,24.646-0.442,26.38,8.637c-1.862-9.422-6.312-17.921-12.575-24.721c-0.55-0.58-1.117-1.134-1.697-1.684
					C275.833,35.688,274.152,40.982,268.735,41.583z"/>
				<path style="fill:#2F2E2D;" d="M256.933,107.077c6.502-14.083,7.105-28.892,7.229-34.186c0.118-5.302-3.615-4.702-8.551-2.53
					c-4.938,2.167-14.443,10.472-21.912,19.017c-7.463,8.549-18.177,16.258-22.392,19.022c-1.338,0.879-2.62,1.446-3.659,1.757
					c8.877,7.348,20.262,11.755,32.686,11.755c1.12,0,2.229-0.036,3.333-0.111C246.705,120.51,252.406,116.891,256.933,107.077z"/>
				<path style="fill:#2F2E2D;" d="M268.846,67.639c-0.578-0.116-2.399,0.19-2.399,3.383c0,3.065,0.328,43.354-22.112,50.733
					c2.02-0.153,4.006-0.423,5.949-0.812c0.983-0.312,1.583-0.528,2.188-0.698c13.57-3.727,24.006-11.767,31.312-23.455
					C283.801,96.69,287.712,71.44,268.846,67.639z"/>
				<path style="fill:#2F2E2D;" d="M290.673,60.608c-0.101-0.372-2.253-7.086-25.43-6.382c0,0,0.961,6.981,0.961,10.352
					c0,0,6.862,0.12,10.838,3.734c3.972,3.612,11.195,13.496,6.741,28.473c0.216-0.344,0.429-0.696,0.641-1.042
					c3.874-6.469,6.19-13.182,6.972-20.068c0.167-1.667,0.252-3.363,0.252-5.079C291.647,67.179,291.31,63.842,290.673,60.608z"/>
				<path style="fill:#2F2E2D;" d="M241.958,122.396c0.817-0.173,1.608-0.39,2.376-0.641c-0.224,0.015-0.441,0.033-0.666,0.045
					C242.919,122.123,242.323,122.301,241.958,122.396z"/>
				<path style="fill:#2F2E2D;" d="M241.958,122.396c-0.142,0.029-0.284,0.066-0.432,0.091
					C241.526,122.487,241.68,122.466,241.958,122.396z"/>
				<polygon style="fill:#2F2E2D;" points="283.783,96.79 283.783,96.786 283.783,96.79 				"/>
				<path style="fill:#2F2E2D;" d="M290.676,60.624c-0.003-0.016-0.009-0.028-0.016-0.049c0.007,0.013,0.013,0.021,0.013,0.033
					C290.676,60.62,290.676,60.624,290.676,60.624z"/>
				<path style="fill:#2F2E2D;" d="M264.038,64.901c0,0.024,0,0.037,0,0.037S264.086,64.914,264.038,64.901z"/>
			</g>
		</g>
	</g>
</g>
</svg>
